<?xml version="1.0" encoding="utf-8"?>
<!-- Generator: Adobe Illustrator 16.0.0, SVG Export Plug-In . SVG Version: 6.00 Build 0)  -->
<!DOCTYPE svg PUBLIC "-//W3C//DTD SVG 1.1//EN" "http://www.w3.org/Graphics/SVG/1.1/DTD/svg11.dtd">
<svg version="1.1" id="Layer_1" xmlns="http://www.w3.org/2000/svg" xmlns:xlink="http://www.w3.org/1999/xlink" x="0px" y="0px"
	 width="40.157px" height="28.346px" viewBox="0 0 40.157 28.346" enable-background="new 0 0 40.157 28.346" xml:space="preserve">
<g>
	<path fill="#6D6E71" d="M37.795,23.622l2.362,2.362l-2.362,2.362H23.722c-2.665,0-4.825-2.476-4.825-5.53v-8.171H0v-0.945h18.897
		V5.53c0-3.054,2.16-5.53,4.825-5.53h14.073l2.362,2.362l-2.362,2.362H24.567c-1.123,0.044-0.945,0.945-0.945,0.945
		c-0.011-0.734,0,6.142,0,6.142h14.173l2.362,2.362l-2.362,2.362H23.622v6.142c-0.066,0.925,0.945,0.945,0.945,0.945H37.795z"/>
</g>
</svg>
