<?xml version="1.0" encoding="utf-8"?>
<!-- Generator: Adobe Illustrator 16.0.0, SVG Export Plug-In . SVG Version: 6.00 Build 0)  -->
<!DOCTYPE svg PUBLIC "-//W3C//DTD SVG 1.1//EN" "http://www.w3.org/Graphics/SVG/1.1/DTD/svg11.dtd">
<svg version="1.1" id="Layer_1" xmlns="http://www.w3.org/2000/svg" xmlns:xlink="http://www.w3.org/1999/xlink" x="0px" y="0px"
	 width="202.27px" height="28.346px" viewBox="0 0 202.27 28.346" enable-background="new 0 0 202.27 28.346" xml:space="preserve">
<g>
	<path fill="#6D6E71" d="M37.795,23.622l2.362,2.362l-2.362,2.362H23.722c-2.665,0-4.825-2.476-4.825-5.53v-8.171H0v-0.945h18.897
		V5.53c0-3.054,2.16-5.53,4.825-5.53h14.073l2.362,2.362l-2.362,2.362H24.567c-1.123,0.044-0.945,0.945-0.945,0.945
		c-0.011-0.734,0,6.142,0,6.142h14.173l2.362,2.362l-2.362,2.362H23.622v6.142c-0.066,0.925,0.945,0.945,0.945,0.945H37.795z"/>
	<g>
		<path fill="#036836" d="M63.873,23.736c1.998-2.521,3.224-5.921,3.224-9.662C67.096,6.301,61.808,0,55.285,0
			c-6.523,0-11.811,6.301-11.811,14.074c0,7.772,5.288,14.073,11.811,14.073c2.252,0,4.356-0.751,6.147-2.054l4.576,2.252
			l1.333-0.827L63.873,23.736z M55.285,23.422c-3.914,0-7.087-4.23-7.087-9.449s3.173-9.449,7.087-9.449s7.086,4.23,7.086,9.449
			S59.199,23.422,55.285,23.422z"/>
		
			<line fill="none" stroke="#036836" stroke-width="0.3333" stroke-miterlimit="10" x1="48.311" y1="15.643" x2="55.73" y2="15.643"/>
		<polyline fill="none" stroke="#036836" stroke-width="0.3333" stroke-miterlimit="10" points="50.508,10.124 50.508,13.028 
			57.841,13.028 57.841,22.786 		"/>
		<polyline fill="none" stroke="#036836" stroke-width="0.3333" stroke-miterlimit="10" points="51.619,19.263 51.619,18.013 
			55.757,18.013 55.757,20.513 57.841,20.513 		"/>
		<polyline fill="none" stroke="#036836" stroke-width="0.3333" stroke-miterlimit="10" points="52.952,7.291 52.952,9.735 
			59.286,9.735 60.452,13.028 57.841,13.028 		"/>
		<polyline fill="none" stroke="#036836" stroke-width="0.3333" stroke-miterlimit="10" points="50.508,21.124 53.229,21.124 
			53.23,19.846 		"/>
		
			<line fill="none" stroke="#036836" stroke-width="0.3333" stroke-miterlimit="10" x1="55.408" y1="7.291" x2="60.452" y2="7.291"/>
		
			<line fill="none" stroke="#036836" stroke-width="0.3333" stroke-miterlimit="10" x1="60.23" y1="15.235" x2="60.23" y2="21.124"/>
	</g>
	<path fill="#6D6E71" d="M93.216,1.313c0,0-0.515-1.54-2.632-1.284C88.39,0.294,88.609,2.28,88.609,2.28
		c0.336,2.284,1.364,4.021,1.658,11.04c0.232,5.527-3.173,10.017-7.086,10.017s-7.204-4.486-7.087-10.017
		c0.156-7.372,1.295-9.581,1.432-11.04c0,0,0.114-1.485-1.734-1.942c-1.743-0.431-2.594,0.871-2.594,0.871
		c-1.157,2.308-1.828,9.284-1.828,12.218c0,8.24,5.288,14.919,11.812,14.919c2.251,0,4.374-0.77,6.146-2.177
		c1.714-1.36,2.441-2.499,2.441-2.499c1.998-2.672,3.223-6.277,3.223-10.243C94.992,10.537,94.342,3.598,93.216,1.313z M74.25,5.521
		c0.482,0,0.874,0.415,0.874,0.926c0,0.511-0.391,0.926-0.874,0.926s-0.874-0.415-0.874-0.926
		C73.377,5.936,73.768,5.521,74.25,5.521z M73.834,9.971c0.482,0,0.874,0.415,0.874,0.926s-0.391,0.926-0.874,0.926
		s-0.874-0.415-0.874-0.926S73.352,9.971,73.834,9.971z M74,16.07c-0.482,0-0.874-0.415-0.874-0.926s0.391-0.926,0.874-0.926
		s0.874,0.415,0.874,0.926S74.483,16.07,74,16.07z M75.581,20.316c-0.482,0-0.874-0.415-0.874-0.926
		c0-0.511,0.391-0.926,0.874-0.926s0.874,0.415,0.874,0.926C76.455,19.901,76.063,20.316,75.581,20.316z M93.541,10.897
		c0,0.512-0.391,0.926-0.874,0.926s-0.874-0.415-0.874-0.926s0.392-0.926,0.874-0.926S93.541,10.386,93.541,10.897z M91.958,4.595
		c0.482,0,0.874,0.415,0.874,0.926s-0.392,0.926-0.874,0.926s-0.874-0.415-0.874-0.926S91.475,4.595,91.958,4.595z M91.334,20.316
		c-0.482,0-0.874-0.415-0.874-0.926c0-0.511,0.392-0.926,0.874-0.926s0.874,0.415,0.874,0.926
		C92.208,19.901,91.816,20.316,91.334,20.316z M92.667,16.07c-0.482,0-0.874-0.415-0.874-0.926s0.392-0.926,0.874-0.926
		s0.874,0.415,0.874,0.926S93.15,16.07,92.667,16.07z"/>
	<path fill="#6D6E71" d="M191.892,23.964c-5.414-0.575-8.814-4.354-8.814-8.437s1.682-10.693,8.156-11.219
		c7.233-0.588,11.037,3.091,11.037-0.663c0-3.158-8.623-3.908-11.49-3.571c-7.934,0.934-12.286,7.951-12.286,14.757
		c0,8.478,6.091,12.39,12.597,13.366c2.812,0.422,12.535,0.154,10.889-3.556C201.18,22.838,199.235,24.744,191.892,23.964z
		 M198.496,2.168c0.512,0,0.927,0.415,0.927,0.927c0,0.512-0.415,0.927-0.927,0.927c-0.512,0-0.927-0.415-0.927-0.927
		C197.569,2.583,197.984,2.168,198.496,2.168z M193.307,1.241c0.512,0,0.927,0.415,0.927,0.927c0,0.512-0.415,0.927-0.927,0.927
		s-0.927-0.416-0.927-0.927C192.38,1.656,192.795,1.241,193.307,1.241z M187.975,2.168c0.512,0,0.927,0.415,0.927,0.927
		c0,0.512-0.415,0.927-0.927,0.927s-0.927-0.415-0.927-0.927C187.048,2.583,187.463,2.168,187.975,2.168z M183.802,5.384
		c0.512,0,0.927,0.415,0.927,0.927c0,0.512-0.415,0.927-0.927,0.927c-0.512,0-0.927-0.416-0.927-0.927
		C182.875,5.799,183.29,5.384,183.802,5.384z M183.802,23.525c-0.512,0-0.927-0.415-0.927-0.927s0.415-0.927,0.927-0.927
		c0.512,0,0.927,0.415,0.927,0.927S184.314,23.525,183.802,23.525z M187.975,26.366c-0.512,0-0.927-0.415-0.927-0.927
		c0-0.512,0.415-0.927,0.927-0.927s0.927,0.415,0.927,0.927C188.902,25.951,188.487,26.366,187.975,26.366z M193.307,26.975
		c-0.512,0-0.927-0.416-0.927-0.927c0-0.512,0.415-0.927,0.927-0.927s0.927,0.415,0.927,0.927
		C194.234,26.56,193.819,26.975,193.307,26.975z M198.496,26.975c-0.512,0-0.927-0.416-0.927-0.927c0-0.512,0.415-0.927,0.927-0.927
		c0.512,0,0.927,0.415,0.927,0.927C199.423,26.56,199.008,26.975,198.496,26.975z"/>
	<g>
		<path fill="#8B5E3C" d="M100.008,8.371c0.153-0.312,0.471-0.509,0.818-0.509l7.597,0.007c0.343,0,0.656,0.193,0.811,0.498
			l-1.07,3.493l-0.498,4.745l1.167,9.942c0.112,0.954-0.633,1.791-1.593,1.791h-0.004c-0.809,0-1.491-0.604-1.59-1.408l-0.98-7.956
			l-0.949,7.958c-0.096,0.807-0.78,1.414-1.592,1.414c-0.957,0-1.701-0.832-1.594-1.783l1.121-9.932l-0.531-4.738"/>
		<path fill="#8B5E3C" d="M107.939,3.326c0.007,1.844-1.482,3.345-3.326,3.352c-1.844,0.007-3.345-1.482-3.352-3.326
			c-0.007-1.844,1.481-3.345,3.326-3.352C106.431-0.007,107.932,1.482,107.939,3.326"/>
	</g>
	<g>
		<path fill="#8B5E3C" d="M172.265,3.331c0.007,1.846-1.484,3.349-3.331,3.356c-1.846,0.007-3.349-1.484-3.356-3.33
			c-0.007-1.847,1.484-3.35,3.331-3.356C170.755-0.007,172.257,1.484,172.265,3.331"/>
		<path fill="#8B5E3C" d="M165.396,8.255c0.184-0.241,0.47-0.382,0.773-0.382h5.446c0.301,0,0.584,0.139,0.769,0.375l-0.107,4.079
			l1.705,7.402h-2.378l0.239,7.435c0.02,0.637-0.488,1.164-1.125,1.168h-0.001c-0.585,0.003-1.076-0.44-1.132-1.022l-0.644-6.827
			l-0.623,6.837c-0.054,0.58-0.539,1.023-1.121,1.026c-0.64,0.003-1.155-0.524-1.137-1.163l0.213-7.431l-2.37,0.001l1.645-7.398"/>
	</g>
	<g>
		<path fill="#6D6E71" d="M124.868,2.054v6.802c0.025,0.071,0.005,0.193,0.218,0.209h5.313c0,0,2.145-0.256,2.145,2.191
			c0,2.333-2.145,2.191-2.145,2.191h-5.237c-0.271,0.028-0.288,0.156-0.294,0.337v7.667c0,2.492,1.038,3.905,4.03,3.905
			c0.887,0,1.315-0.084,1.913-0.118c0.96-0.053,1.365,0.726,1.424,1.029c0.097,0.504,0.231,1.507-0.842,1.747
			c-1.34,0.299-1.822,0.332-3.899,0.332c-2.504,0-4.52-0.54-5.802-1.537c-1.527-1.08-2.076-2.866-2.076-5.233
			c0,0-0.083-14.643,0-19.522C119.662-0.633,124.402-0.736,124.868,2.054z"/>
	</g>
	<g>
		<path fill="#036836" d="M144.597,2.174v8.556l1.055,1.13h3.667l1.058-1.186V2.119c0,0-0.114-2.119,2.275-2.119
			c2.365,0,2.365,2.119,2.365,2.119v24.556c0,0,0,1.672-2.365,1.672c-2.056,0-2.275-1.728-2.275-1.728v-9.833l-1.058-1.062h-3.833
			l-0.889,1.173v9.667c0,0,0.222,1.783-2.223,1.783c-2.387,0-2.387-1.728-2.387-1.728V2.23c0,0,0-2.23,2.275-2.23
			C144.485,0,144.597,2.174,144.597,2.174z"/>
	</g>
</g>
</svg>
